<svg width="291" height="350" viewBox="0 0 291 350" fill="none" xmlns="http://www.w3.org/2000/svg">
<g filter="url(#filter0_d_29_123)">
<circle cx="226.759" cy="107.352" r="38.3519" fill="#353A8D"/>
<rect x="168" y="163.296" width="118.222" height="114.704" rx="15" fill="#353A8D"/>
</g>
<g filter="url(#filter1_d_29_123)">
<circle cx="142.5" cy="54.5" r="54.5" fill="#5055C5"/>
<rect x="72" y="134" width="142" height="163" rx="15" fill="#5055C5"/>
</g>
<path d="M72 350C111.765 350 144 317.765 144 278C144 238.235 111.765 206 72 206C32.2355 206 0 238.235 0 278C0 317.765 32.2355 350 72 350Z" fill="url(#paint0_linear_29_123)"/>
<path d="M65.0781 310.875V246H79.7969V310.875H65.0781ZM40 285.797V271.078H104.875V285.797H40Z" fill="white"/>
<defs>
<filter id="filter0_d_29_123" x="164" y="69" width="126.222" height="217" filterUnits="userSpaceOnUse" color-interpolation-filters="sRGB">
<feFlood flood-opacity="0" result="BackgroundImageFix"/>
<feColorMatrix in="SourceAlpha" type="matrix" values="0 0 0 0 0 0 0 0 0 0 0 0 0 0 0 0 0 0 127 0" result="hardAlpha"/>
<feOffset dy="4"/>
<feGaussianBlur stdDeviation="2"/>
<feComposite in2="hardAlpha" operator="out"/>
<feColorMatrix type="matrix" values="0 0 0 0 0 0 0 0 0 0 0 0 0 0 0 0 0 0 0.25 0"/>
<feBlend mode="normal" in2="BackgroundImageFix" result="effect1_dropShadow_29_123"/>
<feBlend mode="normal" in="SourceGraphic" in2="effect1_dropShadow_29_123" result="shape"/>
</filter>
<filter id="filter1_d_29_123" x="68" y="0" width="150" height="305" filterUnits="userSpaceOnUse" color-interpolation-filters="sRGB">
<feFlood flood-opacity="0" result="BackgroundImageFix"/>
<feColorMatrix in="SourceAlpha" type="matrix" values="0 0 0 0 0 0 0 0 0 0 0 0 0 0 0 0 0 0 127 0" result="hardAlpha"/>
<feOffset dy="4"/>
<feGaussianBlur stdDeviation="2"/>
<feComposite in2="hardAlpha" operator="out"/>
<feColorMatrix type="matrix" values="0 0 0 0 0 0 0 0 0 0 0 0 0 0 0 0 0 0 0.25 0"/>
<feBlend mode="normal" in2="BackgroundImageFix" result="effect1_dropShadow_29_123"/>
<feBlend mode="normal" in="SourceGraphic" in2="effect1_dropShadow_29_123" result="shape"/>
</filter>
<linearGradient id="paint0_linear_29_123" x1="-11.5" y1="327" x2="174" y2="230.5" gradientUnits="userSpaceOnUse">
<stop stop-color="#26CE7D"/>
<stop offset="1" stop-color="#26CEB7"/>
</linearGradient>
</defs>
</svg>
